<?xml version="1.0" encoding="UTF-8" standalone="no"?>
<svg
   xmlns:dc="http://purl.org/dc/elements/1.1/"
   xmlns:cc="http://creativecommons.org/ns#"
   xmlns:rdf="http://www.w3.org/1999/02/22-rdf-syntax-ns#"
   xmlns:svg="http://www.w3.org/2000/svg"
   xmlns="http://www.w3.org/2000/svg"
   xmlns:sodipodi="http://sodipodi.sourceforge.net/DTD/sodipodi-0.dtd"
   xmlns:inkscape="http://www.inkscape.org/namespaces/inkscape"
   viewBox="0 0 86 86"
   version="1.1"
   id="svg2078"
   sodipodi:docname="lint-error.svg"
   width="86"
   height="86"
   inkscape:version="0.92.2 5c3e80d, 2017-08-06">
  <metadata
     id="metadata2082">
    <rdf:RDF>
      <cc:Work
         rdf:about="">
        <dc:format>image/svg+xml</dc:format>
        <dc:type
           rdf:resource="http://purl.org/dc/dcmitype/StillImage" />
        <dc:title></dc:title>
      </cc:Work>
    </rdf:RDF>
  </metadata>
  <sodipodi:namedview
     pagecolor="#ffffff"
     bordercolor="#666666"
     borderopacity="1"
     objecttolerance="10"
     gridtolerance="10"
     guidetolerance="10"
     inkscape:pageopacity="0"
     inkscape:pageshadow="2"
     inkscape:window-width="1920"
     inkscape:window-height="1051"
     id="namedview2080"
     showgrid="false"
     inkscape:zoom="0.65186407"
     inkscape:cx="-906.72077"
     inkscape:cy="-237.74355"
     inkscape:window-x="0"
     inkscape:window-y="0"
     inkscape:window-maximized="1"
     inkscape:current-layer="svg2078" />
  <defs
     id="defs3051">
    <style
       type="text/css"
       id="current-color-scheme">
      .ColorScheme-NegativeText {
        color:#da4453;
      }
      </style>
  </defs>
  <g
     id="g9218"
     transform="matrix(8,0,0,8,11,11)"
     style="stroke-width:0.12500001">
    <path
       id="path2074"
       d="M 1,0 C 0.4459807,0 0,0.446 0,1 V 7 C 0,7.5541 0.4459807,8 1,8 H 7 C 7.554019,8 8,7.5541 8,7 V 1 C 8,0.446 7.554019,0 7,0 Z"
       class="ColorScheme-NegativeText"
       style="color:#da4453;fill:currentColor;fill-opacity:1;stroke:none;stroke-width:0.00833332"
       inkscape:connector-curvature="0" />
    <path
       id="path2076"
       d="M 2,1 1,2 3,4 1,6 2,7 4,5 6,7 7,6 5,4 7,2 6,1 4,3 Z"
       style="fill:#ffffff;fill-opacity:1;stroke:none;stroke-width:0.12500001"
       inkscape:connector-curvature="0" />
  </g>
</svg>
