<?xml version="1.0" encoding="UTF-8" standalone="no"?>
<svg
   xmlns:dc="http://purl.org/dc/elements/1.1/"
   xmlns:cc="http://creativecommons.org/ns#"
   xmlns:rdf="http://www.w3.org/1999/02/22-rdf-syntax-ns#"
   xmlns:svg="http://www.w3.org/2000/svg"
   xmlns="http://www.w3.org/2000/svg"
   xmlns:sodipodi="http://sodipodi.sourceforge.net/DTD/sodipodi-0.dtd"
   xmlns:inkscape="http://www.inkscape.org/namespaces/inkscape"
   viewBox="0 0 90 90"
   version="1.1"
   id="svg878"
   sodipodi:docname="lint-warning.svg"
   width="90"
   height="90"
   inkscape:version="0.92.2 5c3e80d, 2017-08-06">
  <metadata
     id="metadata882">
    <rdf:RDF>
      <cc:Work
         rdf:about="">
        <dc:format>image/svg+xml</dc:format>
        <dc:type
           rdf:resource="http://purl.org/dc/dcmitype/StillImage" />
        <dc:title></dc:title>
      </cc:Work>
    </rdf:RDF>
  </metadata>
  <sodipodi:namedview
     pagecolor="#ffffff"
     bordercolor="#666666"
     borderopacity="1"
     objecttolerance="10"
     gridtolerance="10"
     guidetolerance="10"
     inkscape:pageopacity="0"
     inkscape:pageshadow="2"
     inkscape:window-width="1920"
     inkscape:window-height="1051"
     id="namedview880"
     showgrid="false"
     inkscape:zoom="0.92187502"
     inkscape:cx="-52.818622"
     inkscape:cy="-64.677705"
     inkscape:window-x="0"
     inkscape:window-y="0"
     inkscape:window-maximized="1"
     inkscape:current-layer="svg878"
     fit-margin-top="0"
     fit-margin-left="0"
     fit-margin-right="0"
     fit-margin-bottom="0" />
  <defs
     id="defs3051">
    <style
       type="text/css"
       id="current-color-scheme">
      .ColorScheme-NeutralText {
        color:#f67400;
      }
      </style>
  </defs>
  <g
     id="g1429"
     transform="matrix(7.9999984,0,0,7.9999992,13,-1202.9999)"
     style="stroke-width:0.12500001">
    <path
       inkscape:connector-curvature="0"
       id="path874"
       d="m 4,152 c -0.2035165,2.5e-4 -0.355322,0.0965 -0.4628906,0.3125 0,0 -3.45986287,6.8881 -3.45703128,6.91602 C 0.0434175,159.3055 -1.2456632e-5,159.40368 0,159.5 c 0,0.27614 0.22385763,0.5 0.5,0.5 h 7 c 0.2761424,0 0.5,-0.22386 0.5,-0.5 2.021e-4,-0.11266 -0.018119,-0.13225 -0.1074219,-0.31055 l -3.4375,-6.89843 C 4.346001,152.09774 4.1955491,151.99967 4,152 Z"
       class="ColorScheme-NeutralText"
       style="color:#f67400;fill:currentColor;fill-opacity:1;stroke:none;stroke-width:0.12500001" />
    <path
       inkscape:connector-curvature="0"
       id="path876"
       d="m 3.5,154 v 3 h 1 v -3 z m 0,4 v 1 h 1 v -1 z"
       style="fill:#ffffff;fill-opacity:1;stroke:none;stroke-width:0.12500001" />
  </g>
</svg>
